<mxfile host="65bd71144e">
    <diagram id="2aRirkgCEC_qm-rKE0g3" name="Page-1">
        <mxGraphModel dx="630" dy="424" grid="1" gridSize="10" guides="1" tooltips="1" connect="1" arrows="1" fold="1" page="1" pageScale="1" pageWidth="850" pageHeight="1100" math="0" shadow="0">
            <root>
                <mxCell id="0"/>
                <mxCell id="1" parent="0"/>
                <mxCell id="39" value="Empleo" style="ellipse;whiteSpace=wrap;html=1;" vertex="1" parent="1">
                    <mxGeometry x="270" y="152" width="100" height="60" as="geometry"/>
                </mxCell>
                <mxCell id="41" value="Mas de 3 lenguajes" style="rounded=1;whiteSpace=wrap;html=1;" vertex="1" parent="1">
                    <mxGeometry x="440" y="100" width="110" height="40" as="geometry"/>
                </mxCell>
                <mxCell id="42" value="Habla Ingles" style="rounded=1;whiteSpace=wrap;html=1;" vertex="1" parent="1">
                    <mxGeometry x="440" y="170" width="110" height="42" as="geometry"/>
                </mxCell>
                <mxCell id="43" value="Estudios realizados" style="rounded=1;whiteSpace=wrap;html=1;" vertex="1" parent="1">
                    <mxGeometry x="440" y="241" width="110" height="40" as="geometry"/>
                </mxCell>
                <mxCell id="51" value="Es apto para el puesto" style="rounded=1;whiteSpace=wrap;html=1;" vertex="1" parent="1">
                    <mxGeometry x="450" y="350" width="110" height="40" as="geometry"/>
                </mxCell>
                <mxCell id="53" value="Debe aprender ingles" style="rounded=1;whiteSpace=wrap;html=1;" vertex="1" parent="1">
                    <mxGeometry x="80" y="140" width="110" height="40" as="geometry"/>
                </mxCell>
                <mxCell id="56" value="debe seguir estudiando" style="rounded=1;whiteSpace=wrap;html=1;" vertex="1" parent="1">
                    <mxGeometry x="80" y="220" width="110" height="40" as="geometry"/>
                </mxCell>
                <mxCell id="58" value="TRUE" style="endArrow=classic;html=1;entryX=0;entryY=0.5;entryDx=0;entryDy=0;" edge="1" parent="1" target="41">
                    <mxGeometry width="50" height="50" relative="1" as="geometry">
                        <mxPoint x="370" y="170" as="sourcePoint"/>
                        <mxPoint x="420" y="120" as="targetPoint"/>
                    </mxGeometry>
                </mxCell>
                <mxCell id="59" value="TRUE" style="endArrow=classic;html=1;entryX=0;entryY=0.5;entryDx=0;entryDy=0;exitX=1.03;exitY=0.633;exitDx=0;exitDy=0;exitPerimeter=0;" edge="1" parent="1" source="39" target="42">
                    <mxGeometry width="50" height="50" relative="1" as="geometry">
                        <mxPoint x="380" y="190" as="sourcePoint"/>
                        <mxPoint x="390" y="140" as="targetPoint"/>
                    </mxGeometry>
                </mxCell>
                <mxCell id="60" value="TRUE" style="endArrow=classic;html=1;entryX=0;entryY=0.5;entryDx=0;entryDy=0;" edge="1" parent="1" target="43">
                    <mxGeometry width="50" height="50" relative="1" as="geometry">
                        <mxPoint x="360" y="210" as="sourcePoint"/>
                        <mxPoint x="390" y="140" as="targetPoint"/>
                    </mxGeometry>
                </mxCell>
                <mxCell id="61" value="FALSE" style="endArrow=classic;html=1;exitX=0;exitY=0.5;exitDx=0;exitDy=0;entryX=1;entryY=0.5;entryDx=0;entryDy=0;" edge="1" parent="1" source="39" target="53">
                    <mxGeometry width="50" height="50" relative="1" as="geometry">
                        <mxPoint x="340" y="190" as="sourcePoint"/>
                        <mxPoint x="390" y="140" as="targetPoint"/>
                    </mxGeometry>
                </mxCell>
                <mxCell id="62" value="FALSE" style="endArrow=classic;html=1;exitX=0;exitY=0.5;exitDx=0;exitDy=0;" edge="1" parent="1">
                    <mxGeometry width="50" height="50" relative="1" as="geometry">
                        <mxPoint x="272" y="194" as="sourcePoint"/>
                        <mxPoint x="192" y="232" as="targetPoint"/>
                        <Array as="points">
                            <mxPoint x="212" y="222"/>
                        </Array>
                    </mxGeometry>
                </mxCell>
                <mxCell id="63" value="TRUE" style="endArrow=classic;html=1;entryX=0.5;entryY=0;entryDx=0;entryDy=0;exitX=0.573;exitY=1.075;exitDx=0;exitDy=0;exitPerimeter=0;" edge="1" parent="1" source="43" target="51">
                    <mxGeometry width="50" height="50" relative="1" as="geometry">
                        <mxPoint x="325" y="210" as="sourcePoint"/>
                        <mxPoint x="390" y="140" as="targetPoint"/>
                    </mxGeometry>
                </mxCell>
                <mxCell id="64" value="No es apto para el puesto" style="rounded=1;whiteSpace=wrap;html=1;" vertex="1" parent="1">
                    <mxGeometry x="80" y="320" width="110" height="40" as="geometry"/>
                </mxCell>
                <mxCell id="65" value="FALSE" style="endArrow=classic;html=1;entryX=0.576;entryY=-0.029;entryDx=0;entryDy=0;entryPerimeter=0;exitX=0.576;exitY=1.114;exitDx=0;exitDy=0;exitPerimeter=0;" edge="1" parent="1" source="56" target="64">
                    <mxGeometry width="50" height="50" relative="1" as="geometry">
                        <mxPoint x="160" y="270" as="sourcePoint"/>
                        <mxPoint x="310" y="220" as="targetPoint"/>
                    </mxGeometry>
                </mxCell>
                <mxCell id="67" value="" style="edgeStyle=none;html=1;" edge="1" parent="1" source="66" target="39">
                    <mxGeometry relative="1" as="geometry"/>
                </mxCell>
                <mxCell id="66" value="Buscando Empleo" style="rounded=1;whiteSpace=wrap;html=1;" vertex="1" parent="1">
                    <mxGeometry x="250" y="50" width="120" height="60" as="geometry"/>
                </mxCell>
            </root>
        </mxGraphModel>
    </diagram>
</mxfile>